<svg width="48" height="48" viewBox="0 0 48 48" fill="none" xmlns="http://www.w3.org/2000/svg">
<path d="M45 34.5H43.5L43.5 10.8562L45.3131 10.4662C45.5099 10.4293 45.6973 10.3534 45.8643 10.2429C46.0313 10.1325 46.1744 9.98967 46.2854 9.82299C46.3963 9.65631 46.4727 9.46911 46.5102 9.27243C46.5476 9.07574 46.5453 8.87355 46.5034 8.67778C46.4614 8.482 46.3807 8.2966 46.266 8.13251C46.1513 7.96841 46.0049 7.82895 45.8354 7.72233C45.666 7.6157 45.4769 7.54409 45.2793 7.5117C45.0817 7.47931 44.8796 7.48681 44.685 7.53374L2.685 16.5337C2.32317 16.6118 2.00299 16.8209 1.78604 17.1208C1.56909 17.4208 1.4707 17.7903 1.50979 18.1584C1.54888 18.5265 1.72269 18.8671 1.99779 19.1148C2.27288 19.3624 2.62984 19.4996 3 19.5C3.10651 19.4998 3.21271 19.4885 3.31688 19.4662L4.5 19.2131L4.5 34.5H3C2.60218 34.5 2.22064 34.658 1.93934 34.9393C1.65804 35.2206 1.5 35.6022 1.5 36C1.5 36.3978 1.65804 36.7793 1.93934 37.0606C2.22064 37.342 2.60218 37.5 3 37.5L45 37.5C45.3978 37.5 45.7794 37.342 46.0607 37.0606C46.342 36.7793 46.5 36.3978 46.5 36C46.5 35.6022 46.342 35.2206 46.0607 34.9393C45.7794 34.658 45.3978 34.5 45 34.5ZM7.5 18.5625L40.5 11.4994L40.5 34.5L36 34.5V24C36 23.6022 35.842 23.2206 35.5607 22.9393C35.2794 22.658 34.8978 22.5 34.5 22.5L13.5 22.5C13.1022 22.5 12.7206 22.658 12.4393 22.9393C12.158 23.2206 12 23.6022 12 24L12 34.5H7.5L7.5 18.5625ZM33 28.5L15 28.5L15 25.5L33 25.5V28.5ZM15 31.5L33 31.5V34.5L15 34.5L15 31.5Z" fill="#1A1D1A"/>
</svg>