<svg width="16" height="16" viewBox="0 0 16 16" fill="none" xmlns="http://www.w3.org/2000/svg">
<path d="M9.89019 9.25024L8.66676 10.4571C8.02876 10.0724 7.43608 9.61718 6.8999 9.09996C6.38347 8.56289 5.9283 8.09752 5.54276 7.33253L6.74847 6.1091C6.8215 6.03495 6.87082 5.94074 6.89015 5.83848C6.90948 5.73622 6.89796 5.63051 6.85705 5.53482L5.5999 2.60453C5.55024 2.48899 5.46072 2.39513 5.34765 2.34007C5.23458 2.285 5.10549 2.27239 4.9839 2.30453L2.67876 2.91424C2.56365 2.94409 2.46207 3.01212 2.39065 3.1072C2.31923 3.20229 2.2822 3.3188 2.28562 3.43767C2.43229 6.11869 3.54702 8.65535 5.42276 10.5765C7.34429 12.4529 9.88164 13.5678 12.5633 13.7142C12.6823 13.7182 12.7991 13.6815 12.8944 13.6101C12.9897 13.5388 13.0577 13.437 13.0873 13.3217L13.6965 11.0154C13.7288 10.8939 13.7163 10.7648 13.6613 10.6517C13.6064 10.5386 13.5126 10.4491 13.397 10.3994L10.4662 9.14282C10.3704 9.10131 10.2644 9.08936 10.1618 9.1085C10.0591 9.12764 9.96457 9.177 9.89019 9.25024Z" stroke="white" stroke-width="1.37143" stroke-miterlimit="10" stroke-linecap="square"/>
</svg>

