<svg width="24" height="24" viewBox="0 0 24 24" fill="none" xmlns="http://www.w3.org/2000/svg">
<path d="M6.85714 21.4285C7.33053 21.4285 7.71429 21.0448 7.71429 20.5714C7.71429 20.098 7.33053 19.7142 6.85714 19.7142C6.38376 19.7142 6 20.098 6 20.5714C6 21.0448 6.38376 21.4285 6.85714 21.4285Z"  fill="#48BF84" />
<path d="M18.8571 21.4285C19.3305 21.4285 19.7143 21.0448 19.7143 20.5714C19.7143 20.098 19.3305 19.7142 18.8571 19.7142C18.3838 19.7142 18 20.098 18 20.5714C18 21.0448 18.3838 21.4285 18.8571 21.4285Z" fill="#48BF84" />
<path d="M6.85714 21.4285C7.33053 21.4285 7.71429 21.0448 7.71429 20.5714C7.71429 20.098 7.33053 19.7142 6.85714 19.7142C6.38376 19.7142 6 20.098 6 20.5714C6 21.0448 6.38376 21.4285 6.85714 21.4285Z" stroke="#48BF84" stroke-width="2.05714" stroke-miterlimit="10" stroke-miterlimit="square"/>
<path d="M18.8571 21.4285C19.3305 21.4285 19.7143 21.0448 19.7143 20.5714C19.7143 20.098 19.3305 19.7142 18.8571 19.7142C18.3838 19.7142 18 20.098 18 20.5714C18 21.0448 18.3838 21.4285 18.8571 21.42857" stroke="#48BF84" stroke-width="2.05714" stroke-miterlimit="10" stroke-linecap="square"/>
<path d="M5.82868 7.7143L20.5715 7.7143L19.1332 14.9074C18.973 15.7089 18.2692 16.2857 17.4524 16.2857L8.3581 16.2857C7.49925 16.2857 6.77239 15.6497 6.65925 14.7977L5.14296 3.42859L2.57153 3.42859" stroke="#48BF84" stroke-width="2.05714" stroke-miterlimit="10" stroke-linecap="square"/>
</svg>