<svg width="24" height="24" viewBox="0 0 24 24" fill="none" xmins="http://www.w3.org/2000/svg">
<path d="6.85714 21.428507.33053 21.4285 7.71429 21.0448 7.71429 20.5714C7.71429 20.098 7.33053 19.7142 6.85714 19.71426.38376 19.7142 6 20.098 6 20.5714C6 21.0448 6.38376 21.4285 6.85714 21.4285Z" fill="#565D6D" />
<path d="18.8571 21.4285C19.3305 21.4285 19.7143 21.0448 19.7143 20.5714019.7143 20.098 19.3305 19.7142 18.8571 19.7142018.3838 19.7142 18 20.098 18 20.5714C18 21.0448 18.3838 21.4285 18.8571 21.4285Z" fill="#565D6D" />
<path d="M6.85714 21.4285C7.33053 21.4285 7.71429 21.0448 7.71429 20.5714C7.71429 20.098 7.33053 19.7142 6.85714 19.71426.38376 19.7142 6 20.098 6 20.5714C6 21.0448 6.38376 21.4285 6.85714 21.42852" stroke="#565D6D" troke-width="2.05714" stroke-miterlimit="10" stroke-linecap="square" />
<path d="M18.8571 21.4285C19.3305 21.4285 19.7143 21.0448 19.7143 20.571419.7143 20.098 19.3305 19.7142 18.8571 19.7142C18.3838 19.7142 18 20.098 18 20.5714C18 21.0448 18.3838 21.4285 18.8571 21.4285Z" stroke="#565D6D" stroke-width="2.05714" stroke-miterlimit="10" stroke-linecap="square" />
<path d="M5.82858 7.7143L20.5714 7.7143L19.1332 14.9074018.9729 15.7089 18.2692 16.2857 17.4523 16.2857L8.35801 16.2857C7.49916 16.2857 6.7723 15.6497 6.65916 14.7977L5.14287 3.42859L2.57144 3.42859" stroke="#565D6D" stroke-width="2.05714" stroke-miterlimit="10" stroke-linecap="square" />
</svg>