<svg width="16" height="16" viewBox="0 0 16 16" fill="none" xmlns="http://www.w3.org/2000/svg">
<path d="M1.92743 8.676C1.78882 8.47783 1.71448 8.24184 1.71448 8C1.71448 7.75816 1.78882 7.52217 1.92743 7.324C2.82629 6.05143 5.03943 3.42857 8 3.42857C10.9606 3.42857 13.1737 6.05143 14.0726 7.324C14.2112 7.52217 14.2855 7.75816 14.2855 8C14.2855 8.24184 14.2112 8.47783 14.0726 8.676C13.1737 9.94857 10.9606 12.5714 8 12.5714C5.03943 12.5714 2.82626 9.94857 1.92743 8.676Z" stroke="#171A1F" stroke-width="1.37143" stroke-miterlimit="10" stroke-linecap="square"/> 
<path d="M7.99995 10.2857C9.26231 10.2857 10.2857 9.26237 10.2857 8C10.2857 6.73764 9.26231 5.71429 7.99995 5.71429C6.73758 5.71429 5.71423 6.73764 5.71423 8C5.71423 9.26237 6.73758 10.2857 7.99995 10.2857Z" stroke="#171A1F" stroke-width="1.37143" stroke-miterlimit="10" stroke-linecap="square"/>
<path d="M2.28577 13.7143L13.7143 2.28571" stroke="#171A1F" stroke-width="1.37143" stroke-miterlimit="10" stroke-linecap="square"/>
</svg>