<svg width="48" height="48" viewBox="0 0 48 48" fill="none" xmlns="http://www.w3.org/2000/svg">
<path d="M43.5 9 V16.5 C43.5 16.8978 43.342 17.2794 43.0607 17.5607 C42.7794 17.842 42.3978 18 42 18 C41.6022 18 41.2206 17.842 40.9393 17.5607 C40.658 17.2794 40.5 16.8978 40.5 16.5 V10.5 L34.5 10.5 C34.1022 10.5 33.7206 10.342 33.4393 10.0607 C33.158 9.77936 33 9.39782 33 9 C33 8.60218 33.158 8.22064 33.4393 7.93934 C33.7206 7.65804 34.1022 7.5 34.5 7.5 L42 7.5 C42.3978 7.5 42.7794 7.65804 43.0607 7.93934 C43.342 8.22064 43.5 8.60218 43.5 9 Z M13.5 37.5 H7.5 L7.5 31.5 C7.5 31.1022 7.34196 30.7206 7.06066 30.4393 C6.77936 30.158 6.39782 30 6 30 C5.60218 30 5.22064 30.158 4.93934 30.4393 C4.65804 30.7206 4.5 31.1022 4.5 31.5 L4.5 39 C4.5 39.3978 4.65804 39.7794 4.93934 40.0607 C5.22064 40.342 5.60218 40.5 6 40.5 H13.5 C13.8978 40.5 14.2794 40.342 14.5607 40.0607 C14.842 39.7794 15 39.3978 15 39 C15 38.6022 14.842 38.2206 14.5607 37.9393 C14.2794 37.658 13.8978 37.5 13.5 37.5 Z M42 30 C41.6022 30 41.2206 30.158 40.9393 30.4393 C40.658 30.7206 40.5 31.1022 40.5 31.5 V37.5 H34.5 C34.1022 37.5 33.7206 37.658 33.4393 37.9393 C33.158 38.2206 33 38.6022 33 39 C33 39.3978 33.158 39.7794 33.4393 40.0607 C33.7206 40.342 34.1022 40.5 34.5 40.5 H42 C42.3978 40.5 42.7794 40.342 43.0607 40.0607 C43.342 39.7794 43.5 39.3978 43.5 39 V31.5 C43.5 31.1022 43.342 30.7206 43.0607 30.4393 C42.7794 30.158 42.3978 30 42 30 Z M6 18 C6.39782 18 6.77936 17.842 7.06066 17.5607 C7.34196 17.2794 7.5 16.8978 7.5 16.5 L7.5 10.5 L13.5 10.5 C13.8978 10.5 14.2794 10.342 14.5607 10.0607 C14.842 9.77936 15 9.39782 15 9 C15 8.60218 14.842 8.22064 14.5607 7.93934 C14.2794 7.65804 13.8978 7.5 13.5 7.5 L6 7.5 C5.60218 7.5 5.22064 7.65804 4.93934 7.93934 C4.65804 8.22064 4.5 8.60218 4.5 9 L4.5 16.5 C4.5 16.8978 4.65804 17.2794 4.93934 17.5607 C5.22064 17.842 5.60218 18 6 18 Z M15 15 C14.6022 15 14.2206 15.158 13.9393 15.4393 C13.658 15.7206 13.5 16.1022 13.5 16.5 L13.5 31.5 C13.5 31.8978 13.658 32.2794 13.9393 32.5607 C14.2206 32.842 14.6022 33 15 33 C15.3978 33 15.7794 32.842 16.0607 32.5607 C16.342 32.2794 16.5 31.8978 16.5 31.5 L16.5 16.5 C16.5 16.1022 16.342 15.7206 16.0607 15.4393 C15.7794 15.158 15.3978 15 15 15 Z M34.5 31.5 L34.5 16.5 C34.5 16.1022 34.342 15.7206 34.0607 15.4393 C33.7794 15.158 33.3978 15 33 15 C32.6022 15 32.2206 15.158 31.9393 15.4393 C31.658 15.7206 31.5 16.1022 31.5 16.5 L31.5 31.5 C31.5 31.8978 31.658 32.2794 31.9393 32.5607 C32.2206 32.842 32.6022 33 33 33 C33.3978 33 33.7794 32.842 34.0607 32.5607 C34.342 32.2794 34.5 31.8978 34.5 31.5 Z M27 15 C26.6022 15 26.2206 15.158 25.9393 15.4393 C25.658 15.7206 25.5 16.1022 25.5 16.5 L25.5 31.5 C25.5 31.8978 25.658 32.2794 25.9393 32.5607 C26.2206 32.842 26.6022 33 27 33 C27.3978 33 27.7794 32.842 28.0607 32.5607 C28.342 32.2794 28.5 31.8978 28.5 31.5 L28.5 16.5 C28.5 16.1022 28.342 15.7206 28.0607 15.4393 C27.7794 15.158 27.3978 15 27 15 Z M21 15 C20.6022 15 20.2206 15.158 19.9393 15.4393 C19.658 15.7206 19.5 16.1022 19.5 16.5 L19.5 31.5 C19.5 31.8978 19.658 32.2794 19.9393 32.5607 C20.2206 32.842 20.6022 33 21 33 C21.3978 33 21.7794 32.842 22.0607 32.5607 C22.342 32.2794 22.5 31.8978 22.5 31.5 L22.5 16.5 C22.5 16.1022 22.342 15.7206 22.0607 15.4393 C21.7794 15.158 21.3978 15 21 15 Z" fill="#26413C" />
</svg>
