<svg width="48" height="48" viewBox="0 0 48 48" fill="none" xmlns="http://www.w3.org/2000/svg">
<path d="M40.7607 12.2259L23.4501 2.23158C23.1716 2.07075 22.8285 2.07075 22.5501 2.23158L5.23931 12.2259C4.96085 12.3866 4.78931 12.6838 4.78931 13.0053V32.994C4.78931 33.3155 4.96085 33.6127 5.23931 33.7734L22.5501 43.7676C22.6893 43.8481 22.8447 43.8882 23.0001 43.8882C23.1555 43.8882 23.3109 43.8481 23.4501 43.7676L40.7608 33.7734C41.0392 33.6127 41.2108 33.3155 41.2108 32.994V13.0053C41.2107 12.6838 41.0391 12.3866 40.7607 12.2259ZM23.0001 21.9603L19.471 19.9228L34.9816 10.9677L38.5107 13.0052L23.0001 21.9603ZM23.0001 4.05021L26.9178 6.31209L11.4072 15.2672L7.48949 13.0053L23.0001 4.05021ZM6.58931 14.5641L10.507 16.826V23.5436C10.507 23.8161 10.6305 24.0739 10.8428 24.2447C11.0551 24.4157 11.3333 24.4811 11.5996 24.4228L13.8403 23.9317L16.9767 27.7328C17.1511 27.9441 17.4075 28.0601 17.6711 28.0601C17.7729 28.0601 17.8757 28.0428 17.9752 28.007C18.3326 27.8786 18.5709 27.5397 18.5709 27.16V21.4817L22.1 23.5192V41.4294L6.58931 32.4744V14.5641ZM23.9001 41.4294V23.5192L39.4108 14.5641V32.4744L23.9001 41.4294Z" fill="#48BF84"/>
</svg>