<svg width="48" height="48" viewBox="0 0 48 48" fill="none" xmlns="http://www.w3.org/2000/svg">
<path d="M24 12.4138L24 24L35.5862 24" stroke="#78C29E" stroke-width="1.98621" stroke-miterlimit="10" stroke-linecap="square"/>
<path d="M17.2618 35.0218L7.84858 32.3967L9.8472 41.9917" stroke="#78C29E" stroke-width="1.98621" stroke-miterlimit="10" stroke-linecap="square"/>
<path d="M5.79321 24C5.79527 19.5481 7.42837 15.2512 10.3837 11.9218C13.3391 8.59237 17.4119 6.46113 21.8322 5.93103C26.2524 5.40093 30.7137 6.58872 34.3725 9.84494C38.0313 11.5812 40.6341 15.37 41.6887 19.6952C42.7434 24.0204 42.1768 28.5821 40.0961 32.5178C38.0154 36.4536 34.5648 39.4906 30.3967 41.0546C26.2286 42.6187 21.6319 42.6015 17.4757 41.0061C13.3194 39.4108 9.89174 36.3479 7.84066 32.3967" stroke="#70C29E" stroke-width="1.98621" stroke-miterlimit="10"/>
</svg>
